<?xml version="1.0" encoding="UTF-8"?>
<svg width="61px" height="61px" viewBox="0 0 61 61" version="1.1" xmlns="http://www.w3.org/2000/svg" xmlns:xlink="http://www.w3.org/1999/xlink">
    <!-- Generator: Sketch 41.2 (35397) - http://www.bohemiancoding.com/sketch -->
    <title>Group 9</title>
    <desc>Created with Sketch.</desc>
    <defs></defs>
    <g id="Mssg.me-eng" stroke="none" stroke-width="1" fill="none" fill-rule="evenodd">
        <g id="Desktop-Landscape" transform="translate(-512.000000, -542.000000)">
            <g id="Group-2" transform="translate(302.500000, 195.500000)">
                <g id="Group-19" transform="translate(30.000000, 233.000000)">
                    <g id="Group-16" transform="translate(180.000000, 114.000000)">
                        <g id="Group-9">
                            <ellipse id="Oval-2-Copy-4" fill="#00AFF0" cx="30" cy="30" rx="30" ry="30"></ellipse>
                            <g id="skype-seeklogo.com" transform="translate(14.000000, 14.000000)" fill="#FFFFFF">
                                <path d="M30.8673688,18.6263363 C30.8572334,18.6825877 30.8501386,18.739346 30.8394964,18.7955974 L30.7847652,18.4732916 C30.8146646,18.5234619 30.8394964,18.5756593 30.8673688,18.6263363 C31.0325759,17.727326 31.1192335,16.8070314 31.1192335,15.8872436 C31.1192335,13.8474939 30.7198986,11.8685565 29.9308575,10.0056695 C29.1696887,8.20612875 28.0806397,6.5900388 26.6920896,5.20250218 C25.3055665,3.81496555 23.688463,2.72591654 21.8899359,1.9647478 C20.0275556,1.17672025 18.0486183,0.777385382 16.0088685,0.777385382 C15.0475255,0.777385382 14.0846622,0.867590466 13.1476443,1.04749386 C13.1456173,1.04800063 13.1430834,1.04800063 13.1405495,1.0485074 C13.1932536,1.07637976 13.2464645,1.1012115 13.298155,1.13009739 L12.9804101,1.08043392 C13.033621,1.07029852 13.0873386,1.05914958 13.1405495,1.0485074 C11.8548737,0.364874495 10.4090585,0 8.94550638,0 C6.5560852,0 4.3095732,0.930429962 2.62000159,2.62050835 C0.930936732,4.31007997 0,6.55659197 0,8.94601315 C0,10.4668303 0.391226542,11.9618022 1.12553646,13.2829519 C1.1351651,13.2282208 1.14175311,13.1729829 1.15239528,13.1182516 L1.20712646,13.434983 C1.17874733,13.3853195 1.15391559,13.333629 1.12553646,13.2829519 C0.976546045,14.1388867 0.897996674,15.013572 0.897996674,15.8872436 C0.897996674,17.9275003 1.29733154,19.9059307 2.08637264,21.7693246 C2.84652784,23.5693721 3.93608361,25.1844485 5.32311348,26.5719851 C6.71166364,27.9595218 8.32674004,29.050091 10.1272943,29.8092327 C11.9896746,30.5987806 13.9691187,30.9986223 16.0088685,30.9986223 C16.8967297,30.9986223 17.7866181,30.917539 18.6552221,30.7634809 C18.6045451,30.7351017 18.5528545,30.7092565 18.501164,30.679357 L18.8239765,30.7361153 C18.7682319,30.7467575 18.7119804,30.7533455 18.6552221,30.7634809 C19.993602,31.5205955 21.5088448,31.922971 23.0560139,31.922971 C25.4449284,31.922971 27.6904268,30.9940613 29.3799984,29.3034761 C31.0700767,27.614918 32,25.3678993 32,22.9784781 C32,21.4525932 31.6067464,19.9525536 30.8673688,18.6263363 L30.8673688,18.6263363 L30.8673688,18.6263363 Z M16.0691741,25.141373 C10.7009581,25.141373 8.29937445,22.5021141 8.29937445,20.5241904 C8.29937445,19.5096365 9.04838071,18.798638 10.0806715,18.798638 C12.3778605,18.798638 11.7829123,22.0972049 16.0691741,22.0972049 C18.2634887,22.0972049 19.4751761,20.9057883 19.4751761,19.6864994 C19.4751761,18.953203 19.1133422,18.1403436 17.6685406,17.7840843 L12.8937525,16.5921609 C9.04838071,15.6277774 8.35055824,13.5490063 8.35055824,11.5949006 C8.35055824,7.53769895 12.1705915,6.01434793 15.7580172,6.01434793 C19.0626652,6.01434793 22.9582072,7.84074749 22.9582072,10.2747644 C22.9582072,11.3176974 22.0551429,11.9243012 21.0233589,11.9243012 C19.0626652,11.9243012 19.4234856,9.21054715 15.474226,9.21054715 C13.5145459,9.21054715 12.4290443,10.0979017 12.4290443,11.3678676 C12.4290443,12.6352998 13.9767202,13.040209 15.3206746,13.3462983 L18.8548895,14.1307784 C22.7261066,14.9933011 23.7077204,17.2534959 23.7077204,19.3824373 C23.7077204,22.6794838 21.1769102,25.141373 16.0691741,25.141373 L16.0691741,25.141373 Z M18.501164,30.679357 C18.5528545,30.7092565 18.6045451,30.7351017 18.6552221,30.7634809 C18.7119804,30.7533455 18.7682319,30.7467575 18.8239765,30.7361152 L18.501164,30.679357 L18.501164,30.679357 Z M30.8394964,18.7955974 C30.8501386,18.739346 30.8572334,18.6825877 30.8673687,18.6263363 C30.8394964,18.5756593 30.8146646,18.5234619 30.7847652,18.4732916 L30.8394964,18.7955974 L30.8394964,18.7955974 Z M1.15239528,13.1182516 C1.14175311,13.1729829 1.1351651,13.2282207 1.12553646,13.2829519 C1.15391559,13.333629 1.17874733,13.3853195 1.20712645,13.434983 L1.15239528,13.1182516 L1.15239528,13.1182516 Z M13.298155,1.1300974 C13.2464645,1.1012115 13.1932536,1.07637976 13.1405495,1.0485074 C13.0873386,1.05914958 13.033621,1.07029852 12.9804101,1.08043392 L13.298155,1.1300974 L13.298155,1.1300974 Z" id="Shape"></path>
                            </g>
                        </g>
                    </g>
                </g>
            </g>
        </g>
    </g>
</svg>