<?xml version="1.0" encoding="UTF-8"?>
<svg width="61px" height="61px" viewBox="0 0 61 61" version="1.1" xmlns="http://www.w3.org/2000/svg" xmlns:xlink="http://www.w3.org/1999/xlink">
    <!-- Generator: Sketch 41.2 (35397) - http://www.bohemiancoding.com/sketch -->
    <title>Group 12</title>
    <desc>Created with Sketch.</desc>
    <defs>
        <linearGradient x1="50%" y1="3.34821429%" x2="50%" y2="99.5555644%" id="linearGradient-1">
            <stop stop-color="#8761FF" offset="0%"></stop>
            <stop stop-color="#4B399C" offset="100%"></stop>
        </linearGradient>
    </defs>
    <g id="Mssg.me-eng" stroke="none" stroke-width="1" fill="none" fill-rule="evenodd">
        <g id="Desktop-Landscape" transform="translate(-332.000000, -542.000000)">
            <g id="Group-2" transform="translate(302.500000, 195.500000)">
                <g id="Group-19" transform="translate(30.000000, 233.000000)">
                    <g id="Group-18" transform="translate(0.000000, 114.000000)">
                        <g id="Group-12">
                            <ellipse id="Oval-2-Copy-3" fill="url(#linearGradient-1)" cx="30" cy="30" rx="30" ry="30"></ellipse>
                            <g id="Logo-&amp;-Icon-Guidelines" transform="translate(14.000000, 13.000000)" fill="#FFFFFF">
                                <g id="Page-3">
                                    <g id="Group-4">
                                        <g id="Group-3">
                                            <path d="M28.2225185,3.76002222 C27.4052593,3.00824444 24.1047407,0.611874074 16.7512963,0.579133333 C16.7512963,0.579133333 8.07940741,0.0559111111 3.8527037,3.93442963 C1.49977778,6.28735556 0.671814815,9.73017037 0.584296296,14.0003185 C0.497407407,18.2704667 0.384074074,26.2711704 8.09703704,28.4415037 C8.09955556,28.4421333 8.10207407,28.442763 8.10459259,28.4433926 L8.09955556,31.7533556 C8.09955556,31.7533556 8.05107407,33.0944667 8.93255556,33.3677259 C10.0004074,33.6989111 10.6268889,32.6801704 11.6462593,31.5820963 C12.206,30.9795407 12.9772963,30.0936519 13.5603333,29.4168 C18.8353704,29.8588 22.8920741,28.8457259 23.352963,28.6965037 C24.4182963,28.3495778 30.4451111,27.5789111 31.4254444,19.5782074 C32.436,11.3294296 30.934963,6.11294815 28.2225185,3.76002222 M29.115963,18.9825778 C28.2867407,25.6629481 23.4008148,26.0848 22.4998148,26.3738 C22.1163704,26.4972074 18.552037,27.3837259 14.0722222,27.0909481 C14.0722222,27.0909481 10.7332963,31.1186889 9.69125926,32.1663926 C9.52818519,32.3300963 9.33677778,32.3955778 9.20896296,32.3647259 C9.02951852,32.3212815 8.97977778,32.1084667 8.9822963,31.7974296 C8.98481481,31.3535407 9.01062963,26.2963556 9.01062963,26.2963556 C9.00496296,26.2950963 9.00685185,26.2957259 9.00937037,26.2963556 C2.48640741,24.4836519 2.8667037,17.6729481 2.94037037,14.1073556 C3.01403704,10.5411333 3.68396296,7.61965185 5.67485185,5.65457778 C9.24988889,2.41639259 16.6152963,2.89994815 16.6152963,2.89994815 C22.8354074,2.92765185 25.8160741,4.80017037 26.5074074,5.42791111 C28.8017778,7.39298519 29.971,12.0944296 29.115963,18.9825778" id="Fill-4775"></path>
                                            <path d="M19.777863,14.2299444 C19.5574926,14.2299444 19.3742704,14.0574259 19.362937,13.8351667 C19.2924185,12.423537 18.6275296,11.7322037 17.2706778,11.6597963 C17.0414926,11.6472037 16.8651963,11.4513889 16.8777889,11.2222037 C16.8903815,10.9930185 17.0861963,10.8167222 17.3153815,10.8293148 C19.1060481,10.9256481 20.1014926,11.9506852 20.1934185,13.7936111 C20.2047519,14.0227963 20.0284556,14.2179815 19.7986407,14.2293148 C19.7917148,14.2299444 19.7847889,14.2299444 19.777863,14.2299444" id="Fill-4777"></path>
                                            <path d="M21.9118037,14.9452037 L21.9023593,14.9452037 C21.6725444,14.9401667 21.4905815,14.7493889 21.4962481,14.5202037 C21.5283593,13.0985 21.1222481,11.947537 20.2546185,11.0018333 C19.3913963,10.0573889 18.2064333,9.54298148 16.6311,9.42712963 C16.4025444,9.41012963 16.2300259,9.21116667 16.2470259,8.98198148 C16.2640259,8.75342593 16.4629889,8.58090741 16.6921741,8.59790741 C18.4639519,8.72761111 19.8692852,9.3477963 20.8685074,10.4402037 C21.8727667,11.5363889 22.3638778,12.9152778 22.3273593,14.5390926 C22.3223222,14.7651296 22.1372111,14.9452037 21.9118037,14.9452037" id="Fill-4779"></path>
                                            <path d="M24.0964926,15.7996111 C23.8685667,15.7996111 23.6828259,15.6157593 23.680937,15.3872037 C23.6614185,12.8447593 22.9291593,10.9036111 21.4426037,9.45168519 C19.9736778,8.02116667 18.1175296,7.28701852 15.9257889,7.27127778 C15.6966037,7.27001852 15.5114926,7.08238889 15.5133815,6.85257407 C15.5146407,6.62401852 15.7010111,6.44016667 15.928937,6.44016667 L15.9320852,6.44016667 C18.3454556,6.45716667 20.3949,7.27001852 22.0231222,8.85668519 C23.653863,10.4490185 24.4912704,12.6439074 24.5120481,15.3809074 C24.513937,15.6100926 24.3294556,15.7977222 24.0996407,15.7996111 L24.0964926,15.7996111 Z" id="Fill-4781"></path>
                                        </g>
                                        <path d="M17.3751333,19.3838407 C17.3751333,19.3838407 17.9600593,19.4354704 18.2742444,19.0451 L18.8881333,18.2738037 C19.1834296,17.8903593 19.8986889,17.6466926 20.5982074,18.0364333 C20.9879481,18.2561741 21.6862074,18.6881 22.1244296,19.0104704 C22.5884667,19.3517296 23.5385778,20.1431741 23.5417259,20.1456926 C23.9950593,20.5278778 24.0995778,21.0895074 23.7910593,21.6813593 C23.7910593,21.6845074 23.7885407,21.6908037 23.7885407,21.6939519 C23.471837,22.2536926 23.0480963,22.7775444 22.5116519,23.2667667 C22.5053556,23.2692852 22.5053556,23.2724333 22.5003185,23.2755815 C22.0602074,23.6426556 21.6276519,23.851063 21.2032815,23.902063 C21.1522815,23.912137 21.0899481,23.9165444 21.013763,23.9140259 C20.8280222,23.9159148 20.6441704,23.8882111 20.4622074,23.8290259 L20.4483556,23.8088778 C19.7941704,23.6243963 18.7023926,23.1628778 16.8833926,22.1592481 C15.7015778,21.5075815 14.7180963,20.8426926 13.8882444,20.1803222 C13.4493926,19.8346556 12.9985778,19.441137 12.540837,18.9859148 C12.5257259,18.9708037 12.5106148,18.9556926 12.4955037,18.9405815 C12.4803926,18.9254704 12.4652815,18.9103593 12.4495407,18.8952481 L12.4495407,18.8952481 L12.4495407,18.8946185 C12.4344296,18.8795074 12.4193185,18.8643963 12.4042074,18.8492852 C12.3890963,18.8341741 12.3739852,18.819063 12.3588741,18.8039519 C11.9036519,18.3462111 11.5101333,17.8953963 11.163837,17.4565444 C10.5020963,16.6266926 9.83720741,15.6432111 9.18554074,14.4613963 C8.18191111,12.6423963 7.72039259,11.5506185 7.53591111,10.8964333 L7.51576296,10.8819519 C7.45657778,10.6999889 7.42887407,10.516137 7.43076296,10.3310259 C7.42761481,10.2542111 7.43265185,10.1925074 7.4420963,10.1415074 C7.49372593,9.71713704 7.70213333,9.28458148 8.06920741,8.84447037 C8.07235556,8.8388037 8.0755037,8.8388037 8.07802222,8.83313704 C8.56724444,8.29732222 9.0910963,7.87295185 9.65083704,7.55624815 C9.65398519,7.55624815 9.66028148,7.55372963 9.6628,7.55372963 C10.2552815,7.24521111 10.8169111,7.34972963 11.1984667,7.80306296 C11.2016148,7.80558148 11.9930593,8.75632222 12.3343185,9.22035926 C12.6566889,9.65858148 13.0886148,10.3562111 13.3083556,10.7465815 C13.6980963,11.4461 13.4538,12.1613593 13.0709852,12.4566556 L12.2990593,13.0699148 C11.9093185,13.3847296 11.9609481,13.9696556 11.9609481,13.9696556 C11.9609481,13.9696556 13.1024667,18.2933222 17.3751333,19.3838407" id="Fill-4783"></path>
                                    </g>
                                </g>
                            </g>
                        </g>
                    </g>
                </g>
            </g>
        </g>
    </g>
</svg>