<?xml version="1.0" encoding="UTF-8"?>
<svg width="60px" height="61px" viewBox="0 0 60 61" version="1.1" xmlns="http://www.w3.org/2000/svg" xmlns:xlink="http://www.w3.org/1999/xlink">
    <!-- Generator: Sketch 41.2 (35397) - http://www.bohemiancoding.com/sketch -->
    <title>Group 8</title>
    <desc>Created with Sketch.</desc>
    <defs>
        <linearGradient x1="50%" y1="3.34821429%" x2="50%" y2="99.5555644%" id="linearGradient-1">
            <stop stop-color="#03C5FF" offset="0%"></stop>
            <stop stop-color="#027AFF" offset="100%"></stop>
        </linearGradient>
    </defs>
    <g id="Mssg.me-eng" stroke="none" stroke-width="1" fill="none" fill-rule="evenodd">
        <g id="Desktop-Landscape" transform="translate(-334.000000, -428.000000)">
            <g id="Group-2" transform="translate(302.500000, 195.500000)">
                <g id="Group-19" transform="translate(30.000000, 233.000000)">
                    <g id="Group-13">
                        <g id="Group-8" transform="translate(1.500000, 0.000000)">
                            <ellipse id="Oval-2" fill="url(#linearGradient-1)" cx="30" cy="30" rx="30" ry="30"></ellipse>
                            <g id="facebook-messenger" transform="translate(13.000000, 14.000000)" fill="#FFFFFF">
                                <path d="M16.8950617,0 C7.56416049,0 0,7.04733951 0,15.7407407 C0,20.6943519 2.45681481,25.1128827 6.2962963,27.9982654 L6.2962963,34 L12.0489074,30.8232037 C13.5841543,31.2507222 15.2105926,31.4814815 16.8950617,31.4814815 C26.225963,31.4814815 33.7901235,24.434142 33.7901235,15.7407407 C33.7901235,7.04733951 26.225963,0 16.8950617,0 L16.8950617,0 Z M18.5740741,21.1975309 L14.2716049,16.5802469 L5.87654321,21.1975309 L15.1111111,11.3333333 L19.5185185,15.9506173 L27.808642,11.3333333 L18.5740741,21.1975309 L18.5740741,21.1975309 Z" id="Shape"></path>
                            </g>
                        </g>
                    </g>
                </g>
            </g>
        </g>
    </g>
</svg>