<?xml version="1.0" encoding="UTF-8"?>
<svg width="61px" height="61px" viewBox="0 0 61 61" version="1.1" xmlns="http://www.w3.org/2000/svg" xmlns:xlink="http://www.w3.org/1999/xlink">
    <!-- Generator: Sketch 41.2 (35397) - http://www.bohemiancoding.com/sketch -->
    <title>Group 6</title>
    <desc>Created with Sketch.</desc>
    <defs>
        <linearGradient x1="50%" y1="3.34821429%" x2="50%" y2="99.5555644%" id="linearGradient-1">
            <stop stop-color="#63FF7F" offset="0%"></stop>
            <stop stop-color="#04B622" offset="100%"></stop>
        </linearGradient>
    </defs>
    <g id="Mssg.me-eng" stroke="none" stroke-width="1" fill="none" fill-rule="evenodd">
        <g id="Desktop-Landscape" transform="translate(-422.000000, -428.000000)">
            <g id="Group-2" transform="translate(302.500000, 195.500000)">
                <g id="Group-19" transform="translate(30.000000, 233.000000)">
                    <g id="Group-14" transform="translate(90.000000, 0.000000)">
                        <g id="Group-6">
                            <ellipse id="Oval-2-Copy" fill="url(#linearGradient-1)" cx="30" cy="30" rx="30" ry="30"></ellipse>
                            <g id="Group-5" transform="translate(13.000000, 13.000000)">
                                <g id="whatsapp">
                                    <path d="M17.010106,2.70895392 C9.35258525,2.70895392 3.145,8.91653917 3.145,16.5740599 C3.145,21.0585346 5.84705991,24.7992396 5.84705991,24.7992396 L4.1554424,29.8465161 L9.36880184,28.1454194 C9.36880184,28.1454194 12.7660599,30.4392442 17.010106,30.4392442 C24.6676267,30.4392442 30.8753687,24.2315806 30.8753687,16.5740599 C30.8753687,8.91653917 24.6676267,2.70895392 17.010106,2.70895392" id="Fill-3"></path>
                                    <path d="M17.010106,30.4392442 C12.7660599,30.4392442 9.36880184,28.1454194 9.36880184,28.1454194 L4.1554424,29.8465161 L5.84705991,24.7992396 C5.84705991,24.7992396 3.145,21.0585346 3.145,16.5740599 C3.145,8.91653917 9.35258525,2.70895392 17.010106,2.70895392 C24.6676267,2.70895392 30.8753687,8.91653917 30.8753687,16.5740599 C30.8753687,24.2315806 24.6676267,30.4392442 17.010106,30.4392442 L17.010106,30.4392442 Z M17.010106,0.067921659 C7.89403226,0.067921659 0.504046083,7.45798618 0.504046083,16.5740599 C0.504046083,21.0984101 2.89932258,25.1424516 2.89932258,25.1424516 L0.0136313364,33.9320783 L9.0579447,31.041765 C9.0579447,31.041765 12.4155622,33.0801982 17.010106,33.0801982 C26.1262581,33.0801982 33.5163226,25.6901336 33.5163226,16.5740599 C33.5163226,7.45798618 26.1262581,0.067921659 17.010106,0.067921659 L17.010106,0.067921659 Z" id="Fill-5" fill="#FFFFFF"></path>
                                    <path d="M10.7245714,9.38799539 C10.7245714,9.38799539 11.1705668,9.10534101 11.4030829,9.10534101 L12.7033871,9.10534101 C12.7033871,9.10534101 13.0520829,9.1660553 13.212212,9.52940092 C13.3724194,9.8926682 14.4687235,12.4685991 14.5502765,12.6673502 C14.6318295,12.866023 14.8446037,13.3576912 14.5031935,13.7980461 C14.1617834,14.2384793 13.4477834,15.0607465 13.4477834,15.0607465 C13.4477834,15.0607465 13.165129,15.3152765 13.4101014,15.7204562 C13.6550737,16.1255576 14.5166682,17.462212 15.6435253,18.4720276 C16.7703041,19.4818433 18.1502028,20.2246728 18.8379585,20.4508433 C19.525871,20.6770138 19.6765991,20.3754793 19.9403733,20.0362627 C20.2043041,19.6970461 21.0241429,18.6605161 21.0241429,18.6605161 C21.0241429,18.6605161 21.3069539,18.2459355 21.8627834,18.5003088 C22.4188479,18.754682 25.1231014,20.0645438 25.1231014,20.0645438 C25.1231014,20.0645438 25.4528387,20.1211843 25.4717189,20.4886037 C25.4905207,20.8561014 25.7170046,21.9557742 24.7368018,23.0138479 C23.7565991,24.0719217 21.672023,24.561553 20.6850829,24.2856359 C19.6979862,24.0097189 16.4347696,23.1559585 14.3064793,21.1712673 C12.1781889,19.186576 10.4546866,17.0974562 9.74961751,15.5568018 C9.04454839,14.0161475 9.08371889,13.1021429 9.1228894,12.6712673 C9.16205991,12.2403917 9.38846544,10.2437926 10.7245714,9.38799539" id="Fill-6" fill="#FFFFFF"></path>
                                </g>
                            </g>
                        </g>
                    </g>
                </g>
            </g>
        </g>
    </g>
</svg>